<svg version="1.1" id="Layer_1" xmlns="http://www.w3.org/2000/svg" xmlns:xlink="http://www.w3.org/1999/xlink" x="0px" y="0px"
	 viewBox="0 0 360 360" style="enable-background:new 0 0 360 360;" xml:space="preserve" class="logo">
<style type="text/css">
	.st0a{fill:#44B6E6;}
	.st1a{fill:none;}
</style>
<g>
	<g>
		<g>
			<g>
				<g>
					<g>
						<polygon class="st0" points="341.1,220 341,219.9 340.6,220.1 						"/>
						<path class="st0a" d="M338.6,220.5c0.1,0,0,0.1,0.1,0.2l1.5-0.7C339.6,219.6,339.1,220.8,338.6,220.5z"/>
						<path class="st0a" d="M338.2,220.5c-0.6-0.2-0.8,0.2-0.9,0.3C337.4,220.5,338.3,220.8,338.2,220.5z"/>
						<path class="st0a" d="M287.7,220.8c0.1,0,0.1,0,0.2,0C287.8,220.8,287.7,220.8,287.7,220.8z"/>
						<path class="st0a" d="M274.5,222.1l-0.1,0.3c2.5-0.5,5.2,0,7.8-0.3l-0.2,0.1c6.6,0.1,12.7-0.4,19.2-0.7c-0.1,0-0.1,0.1-0.2,0.1
							c0.3-0.1,0.7-0.3,1-0.3c0.1,0.1-0.1,0.1-0.2,0.2c1.4,0.4,4.1-0.3,4.9,0c0.4,0,0.6-0.2,0.3-0.4c5.1-0.1,10.6-0.2,15.8-0.6
							c0.3,0.1,0.3,0.2,0.2,0.3c4.5-0.7,9.1-0.5,13.7-0.3c0.2-0.2-0.5-0.2,0-0.4c-1.5-0.2-2.7,0.5-4,0.1l0.2-0.2
							c-1-0.1-0.2,0.5-1.2,0.2c-0.4-0.2,0.1-0.2-0.1-0.3c-2.1,0.1-4.2-0.1-6.1,0.4c-0.5-0.4-2.2,0-3-0.4c-0.5,0.2-1.1,0.1-1.3,0.4
							c-7.2-0.2-14.6,0.2-21.9,0.2c-3.5,0.8-7.6-0.1-11.7,0.2c0,0,0-0.1,0-0.1c-1.3,0.2-3.3,0.3-4.9,0.2l-1.3,0.3
							c-9.6-0.6-19.4,0-29.2-0.2c-11.1-0.1-20.8-0.5-31.6,0.7c0-0.1-0.1-0.1,0.2-0.2c-3.1,0.2-6,0-8.9,0.2l0-0.1
							c-7.3,0.8-15.1,0.2-22.1,1c-8.5,0.1-18.2,0.4-27.2,0.8l0-0.2c-7.2,0.5-14.2-0.1-21.4,0.3c-7.4-0.1-15.2,1.4-22.7,1.2
							c-4.7-0.6-10.7,1.3-15,0.7c-9-0.8-17.6,0.4-26.5,1.6c-8.3,0.1-16.4,1.7-24.4,1.5c-3.7,0.9-8,0.1-12.2,0.8l0.2,0.2
							c-1.6-0.4-3.2,1.3-4.3,0.6l0.2-0.1c-0.9-0.3-1.6,1.3-2.2,0.9l-0.1,0.2c-0.9,0.3-0.2-0.2-0.9-0.1c-0.3,0.1,0,0.4-0.6,0.4
							c-0.2-0.4-0.7-0.2-1.3,0c-0.6,0.2-1.1,0.4-1.3,0c0.5-0.2-1,0,0.1-0.7c-0.2,0-0.7,0.2-1.2,0.6c-0.2,0.2-0.5,0.6-0.5,0.8
							c0,0.2,0,0.3,0.1,0.3c0.2,0.2,0.3,0.4,0.5,0.6c0.1,0.1,0.2,0.1,0.3,0.1c0.1,0,0.3-0.2,0.4-0.3c-0.1-0.1-0.1-0.2-0.2-0.3
							c0.4,0.1,0.3,0,0.5,0.1c0.4-0.3,0.8-0.2,1.2-0.2c0.3,0,0.6,0.1,1.1,0.1c0,0,0,0,0,0c0.5-0.5,1.4-0.5,1.8-0.5l0.2,0.1
							c0.4,0.3,1.3-1,1-0.3c2.5-0.6,5.5-1,8.4-1.4c0.4-0.3,2.2-0.2,1.5-0.6c0.8,0.5,3,0.4,3.8,0.3c0,0.1-0.1,0.1-0.2,0.1
							c1.6,0.6,1.8-0.8,3.3-0.1c0.2-0.6,2.7,0,3.4-0.8c0.2,0.1,0.3,0.2,0.2,0.4c2.6-0.2,5.6-0.2,7.8-0.3c1.9-0.7,4.6-0.1,6.2-0.9
							c1.4,0.1,3.6,0.2,5.5-0.2l-0.2,0.1c2.1-0.2,4.8-0.4,6.3-0.9c0.7,0.7,1.6,0.5,2.5,0.7c1.4-0.4,4.3-0.5,6.5-0.9
							c0.4,0.3,1.8-0.2,1.9,0.2c6.1-1.2,13.7-1.2,20.2-0.8l-0.1,0c0.8-0.3,1.8-0.9,2.6-1.3c0.1,0,0.1,0.1-0.1,0.1
							c1.2-0.1,2.3,0.3,3.5,0.2c0,0.1,0,0.1-0.2,0.2c1.1-0.3,2.3,0.3,3.6-0.1l0.1,0.1l0.8-0.2c0,0.2,0,0.4-0.5,0.4
							c10.3-0.2,20.8-1.4,31.4-1.5l-0.4,0.2l2-0.3c0,0.1-0.1,0.1-0.2,0.2c2.6,0.2,5.3-0.3,7.8-0.3c0,0.1-0.4,0.2,0,0.3
							c1.9-0.5,3,0.5,3.9-0.4c0.1,0,0.2,0.2,0,0.3c5.2-0.4,10.6-0.5,15.8-0.5c4.4-0.9,9.3-0.3,13.8-1l0,0.2
							c5.9-0.7,12.1-0.2,18.3-0.4c2.5,0,4.2-0.2,6.8-0.2l0.1,0.2c4.3-0.8,9,0.6,13.5-0.3l-0.3,0.3c0.7-0.4,2.7,0.1,2.4-0.6l0.8,0.2
							c3-1,5.5,0.4,9.3-0.3l-0.2,0.2c1-0.1,2.1-0.3,2.9-0.1c-0.1,0-0.1,0.1-0.3,0.1c3.1,0.6,6.6-0.1,9.8-0.1l-0.4,0.3
							c1.6-0.4,4.5-0.1,6.6-0.3l-0.1,0.2l1.1-0.2l0,0.3C269.3,222.4,271.9,222.1,274.5,222.1z"/>
						<path class="st0a" d="M301.8,221.5C301.8,221.5,301.8,221.5,301.8,221.5C301.7,221.6,301.7,221.6,301.8,221.5z"/>
						<path class="st0a" d="M32.6,232.7c-0.1,0-0.2,0-0.3,0C32.3,232.8,32.5,232.7,32.6,232.7z"/>
					</g>
				</g>
			</g>
		</g>
	</g>
	<path d="M82.3,148.1c0,0,3.2-6.7-6.5-3.3s-22.6,20.1-22.6,20.1s-15.9,23.5-19.4,33.5c-1.1,3.2-1.5,5.6-1.6,7.2
		c-0.1,2.4,1.8,4.5,4.1,4.5c1.5,0,3.4-0.3,4.9-1.9c3.2-3.3,5.4-6.5,5.4-13.2c0,0,3.2,3.3,12.9,0l3.2-1.5l-4.8,10.7
		c0,0-2.5,6.4,5,2.5c0,0,1,0.5,0,2.4c-1,1.9-17.7,31.9-29.3,37.4c-11.6,5.5-16.5-5.7-16.5-5.7s-1.3-2.1-0.8,2.4
		c0.5,4.5,2.2,8.7,13.1,7.7s28.3-27.5,35.7-40.9c7.4-13.4,12.8-20.3,12.8-20.3s2.1-3.5-2.2-1.8l-10,15.6c0,0-7.5,6.3-4.7,0.1
		s8-13.8,8-13.8s-1.1-1.4-4.7,0.5c-3.6,1.9-2.3,2.3-9.8,4.1c-7.5,1.9-6.4-7.2-6.4-7.2s-2.1-2.1-2.8,1.4c-0.7,3.5-1.2,9.7-1.2,10.5
		c-0.1,3.1-4.5,9.5-7.5,8.8c-3.9-0.9-1.2-6.2,0.6-9.8c1.8-3.6,11-21.2,12.7-23.4c1.7-2.1,8.5-14.3,12.5-18.1s9.8-9.2,12.3-10.3
		s4.7-0.9,4.8,1C79.9,150.2,82.3,148.1,82.3,148.1z"/>
	<ellipse transform="matrix(0.2158 -0.9764 0.9764 0.2158 68.8956 491.8932)" cx="340.7" cy="203.1" rx="5.6" ry="2.8"/>
	<path d="M220.9,194.2c-1.2,1.7-6.3,9.1-12.9,10.4c-6.7,1.4-2.1-9.8-1.3-12.5c2.2-6.8,4.5-13.6,6.6-20.4c1.3-4.1,2.4-8.2,1-12.4
		c-0.9-2.8-4.2-6.2-12.5-5.4c-0.6,0.1-1.2,0.2-1.8,0.4c0.2,0.1,0.5,0.2,0.7,0.3c1.8,1,2.5,2.7,2.6,4.6c0.6,2.9-1.4,8-2,9.7
		c-2,6-4.4,12-6.1,18.1c-0.7,2.6-2.3,8.3-2.5,8.6c-1.2,1.7-4.8,7.9-11.3,9.3c-6.7,1.4-2.1-9.8-1.3-12.5c2.2-6.8,4.5-13.6,6.6-20.4
		c1.3-4.1,2.4-8.2,1-12.4c-0.9-2.8-4.2-6.2-12.5-5.4c-8.2,0.8-14,12-14,12s-0.5,2.2,0.7,0.4c1.2-1.7,4.8-7.9,11.3-9.3
		c6.5-1.3,2.4,9.1,1.5,11.8c-2,6-4.4,12-6.1,18.1c-1.4,4.9-3.3,10.4-1.7,15.4c0.9,2.8,4.2,6.2,12.5,5.4c6.9-0.7,12-8.6,13.6-11.2
		c-0.1,1.9,0,3.7,0.6,5.6c0.9,2.8,4.2,6.2,12.5,5.4c8.2-0.8,15.6-13.1,15.6-13.1S222.1,192.4,220.9,194.2z"/>
	<path class="st1" d="M343.6,204.2v1.2C343.6,205,343.6,204.6,343.6,204.2C343.6,204.2,343.6,204.2,343.6,204.2z"/>
	<path d="M343.6,205.7v-0.2C343.6,205.5,343.6,205.6,343.6,205.7z"/>
	<path d="M273,205.6c-0.1,0-0.3,0-0.4,0c-2.2-0.1-4.5-0.8-6.1-2.3c-1.3-1.1-2.1-2.6-2.9-4.1c-3.1-6-2.3-11-1-17.4
		c2.2-10.7,9.5-25.7,14.6-25.7c4.7,0,8.1,5.2,6,9.4c-1.6,3.1-5.7,4.2-7.7,7.1c-1.5,2.1-1.6,5.2,0,7.3c1.6,2.1,4.8,2.9,7.2,1.6
		c1.7-0.9,2.7-2.6,3.4-4.3c2.1-5.1,1.8-11-0.5-16c-1-2.1-2.3-4.2-4.2-5.6c-2-1.4-4.4-2-6.8-2.1c-13.7-0.7-21,10.4-23.6,21.8
		c-2.1,9.1-2,17.1,3.7,25c2,2.7,4.7,5.1,7.9,6.3c5.3,2,13.4,1.4,18.2-1.6c5-3.1,8.5-8.4,11.2-13.4c0.8-1.4,1.5-2.7,3-5.6l-0.4-1.9
		c-3.7,7.5-7.1,14-12.5,18.2C279.7,204.6,276.3,205.7,273,205.6z"/>
	<path d="M317.5,205.8c-2.4,0.1-4.8-0.6-6.9-2.7c-6.6-6.8-4.7-18-2.2-26.1c1.5-4.9,3.5-9.8,6.2-14.2c1.4-2.3,3.9-6.6,7.1-6.6
		c5.3,0,5,6.6,4.3,10.3c-1.1,5.6-4.3,12.1-8.7,15.8c-0.3,0.2-0.6,0.5-0.9,0.7c-3.3,2.1-6.6,1.9-7,2.1c-0.3,0.2-0.3,0.2-0.3,0.5
		c0,0.3,0.6,0.2,0.9,0.3c5.3,0.2,10.6-1.2,15.4-3.4c7.2-3.4,7.6-12.2,5.5-19c-1.7-5.5-6-9.5-11.9-9.8c-13.7-0.7-20.9,10.4-23.6,21.8
		c-2.1,9.1-2,17.1,3.7,25c2,2.7,4.7,5.1,7.9,6.3c5.5,2.1,13.3,1.6,18.3-1.5c5.8-3.6,10.3-10.5,12.7-16.7c0.3-0.8,0.6-1.7,0.2-2.4
		c-1.9,4.4-4.5,8.4-7.7,12C327.7,201.6,322.5,205.5,317.5,205.8z"/>
	<path d="M236.4,204.5c-5.7,1.4-3.3-8.4-3.3-8.4l20.7-76.3c-9.2-0.7-10.2-10.8-10.2-10.8s-21.2,78.4-21.8,81.2
		c-1.6,7.7-1.3,9.3-0.2,12.4c1.1,3.1,4.5,6.7,12.8,5.5c7.9-1.1,13.2-12.2,16.4-17.8l-0.6-0.6C247.5,194,242.9,202.9,236.4,204.5z"/>
	<path d="M142,117.4c-3.5-0.8-7.3-0.7-11.2,0c-5.5,1-15.1,4.9-17.5-3c-0.6,3.2-26,88.1-26.7,90.7c-0.4,1.4-0.8,2.7-1.1,4.1
		c0,0.1-0.1,0.2-0.1,0.3c0,0,6.1-8.2,14.3-4c0.1-0.2,0.1-0.4,0.2-0.6c5.6-20.1,11.3-40.2,16.9-60.3c1.3-4.7,2.6-9.4,4.1-14.1
		c1.4-4.4,3.1-8.3,7.5-10c13.8-5.2,19.2,10.2,21.1,20.9c2.8,15.8-0.7,33.3-8.9,47.1c-4.2,7-18.5,20.6-26.9,10.8
		c-3.4-4-1.2-10.3-2.5-15.4c-0.7,4.5-1.3,9.1-0.5,13.5c0.8,4.5,3.3,8.8,7.5,10.7c7.4,3.4,17.3-0.9,23.5-5
		c14.3-9.5,19.7-22.2,22.6-37.9c2.5-14-0.3-31.3-10.8-41.6C149.9,120.2,146.1,118.3,142,117.4z"/>
</g>
</svg>
