<svg id="Layer_1" data-name="Layer 1" xmlns="http://www.w3.org/2000/svg" viewBox="0 0 285.11 125.53"><defs><style>.cls-1{fill:none;}</style></defs><title>byDulce_flow_no_underline</title><path d="M255.9,206.38a7.49,7.49,0,0,1-4.72-2.58c-4.76-5.55-.68-16.42,2.21-22.89a39.39,39.39,0,0,1,9.68-13.68c3.66-3.18,9.91-6.59,14.1-4.61a3,3,0,0,1,1.65,1.84c.54,1.91-.88,3.51-2.36,4.45s-3.74,2.09-4.74,4.31a2,2,0,0,0,.78,2.81,3.66,3.66,0,0,0,2.55,0c5.14-1.7,7.2-10.57,4.05-13.91a7.74,7.74,0,0,0-4.67-2.16c-11.88-1.63-21.71,8.55-27,19.89-2.31,4.93-4.23,10.19-4.2,15.39,0,4.66,1.47,9.66,5.2,12.27a10.29,10.29,0,0,0,1.86,1,15.29,15.29,0,0,0,9.06.53,33.57,33.57,0,0,0,11.11-5c1.74-1.13,3.42-2.35,5.1-3.58a34.69,34.69,0,0,0,3.88-2.82c.43-.41,1-.93.77-1.5-.6-1.33-3.63,1.8-4.41,2.38a63.72,63.72,0,0,1-6.17,4.13C265.36,205.19,260.51,207.07,255.9,206.38Z" transform="translate(-32.63 -117.24)"/><path d="M161.76,126.52a26.42,26.42,0,0,0-10.24,0c-5,.83-11.39,4.73-14.69-1.33a.44.44,0,0,0-.79.18,37.67,37.67,0,0,1-2.27,5.61c-1.7,3.78-3.55,7.51-5.42,11.23q-3.58,7.11-7.34,14.15-4,7.63-8.22,15.2-4,7.21-8.05,14.38c-2.24,3.92-4.5,7.82-6.84,11.69a79.42,79.42,0,0,1-7.21,10.29c-.21.25,0,.57.32.4a11.28,11.28,0,0,1,10.69-1l.32-.59,30.05-55.23c2.35-4.31,4.64-8.65,7.12-12.92,2.32-4,4.85-7.61,9.29-9.13,13.89-4.76,19.85,12.49,19,22.23-1.28,14.5-9.62,30.45-21.36,42.31C139,201.13,113,212.61,116,201.63c2.39-8.85,39.37-27.75,49.89-33.9.3-.17-.44-1-.75-.88-11.52,4.51-47.8,26.65-51.49,33s.77,9.15,4.25,9.84c6.78,1.35,16.11-.81,22.78-4.59,15.36-8.71,23.44-20.31,29.81-34.7,5.68-12.82,7.32-28.68.17-38.16A15,15,0,0,0,161.76,126.52Z" transform="translate(-32.63 -117.24)"/><path class="cls-1" d="M216.9,164.28c-.13-.42-.54-.48-.94-.44-1.65.19-10.42,15.8-10.58,16.33.36-.19,6.26-7.26,6.95-8.07C214.67,169.36,217.18,165.19,216.9,164.28Z" transform="translate(-32.63 -117.24)"/><path d="M216.52,196.2c-1.51,1.59-9,9-15.28,10.24-6.46,1.24-7.65-3.47-3.86-10.16,2.18-3.85,4.42-8.22,5.9-11a14.54,14.54,0,0,1,1.64-2.7c2.3-2.43,7-7.16,8.12-8.57,2.3-2.64,6.08-7.36,5.41-10.8a3.42,3.42,0,0,0-3.34-2.63c-4-.13-6.23,4.21-8,7.2-2,3.29-3.85,6.61-5.84,9.89l-.59,1c-1.07,1.72-2.13,3.45-3.18,5.18-1.28,2.12-2.54,4.24-3.74,6.4-1.3,2.35-3.32,6.21-3.56,6.46-1.51,1.59-7.1,8.67-13.4,9.88-6.46,1.24-7-4.39-4.2-9.44,3.49-6.31,8.31-14.27,11.89-20.53,2.14-3.75,10.34-17.35-1.1-16.54-7.74.55-18.41,7.64-18.41,7.64s.61,1.23,2.64,0A38.26,38.26,0,0,1,180.76,163c6.24-1.2,0,8.36-1.47,10.8-3.33,5.53-6.89,11-10,16.6-2.48,4.47-5.57,9.54-5.25,14.13.18,2.61,2.37,5.72,10.12,5,6.47-.61,13.1-7.84,15.13-10.23a13.21,13.21,0,0,0-.8,5.09c.18,2.61,1.75,5.9,10.12,5,7.76-.85,17-10.68,17-10.68S218,194.61,216.52,196.2ZM216,163.85c.39,0,.81,0,.94.44.27.91-2.23,5.07-4.57,7.82-.69.81-6.59,7.87-6.95,8.07C205.55,179.64,214.32,164,216,163.85Z" transform="translate(-32.63 -117.24)"/><path class="cls-1" d="M262.52,123.23c0-.85-.33-1-.73-1-1.68.15-16.48,29.77-16.85,30.79.43-.34,9-13.48,10-15C258.31,132.94,262.42,125.06,262.52,123.23Z" transform="translate(-32.63 -117.24)"/><path d="M223.48,194.93q8-14.9,16-29.79A100.65,100.65,0,0,1,247,153c2.31-3.15,4.66-6.29,6.86-9.51.34-.5.66-1,1-1.51,3.3-4.9,8.87-13.71,9.6-20.59.33-3.05-1.45-3.77-3-4.09-3.84-.8-7,5.93-9.89,11.59-10.2,19.62-20.52,39.18-31.18,58.61-1,1.83-2,3.66-2.93,5.51l-.15.29c-3.31,7.09-3.41,8.51-3.18,11.32s2.53,6.11,10.44,5.05c7.48-1,14.82-10.11,19.15-15.23l-.21-1.71c-3.89,4.41-11.14,13.65-18.14,14a4.3,4.3,0,0,1-4.39-5.5A28.06,28.06,0,0,1,223.48,194.93Zm38.31-72.69c.4,0,.78.14.73,1-.1,1.83-4.21,9.71-7.58,14.82-1,1.51-9.57,14.65-10,15C245.3,152,260.11,122.4,261.78,122.25Z" transform="translate(-32.63 -117.24)"/><path d="M317.62,191.35A44.49,44.49,0,0,1,309,200c-4.5,3.22-9.63,6.26-15.21,6.91a10.75,10.75,0,0,1-5.84-.76,7.7,7.7,0,0,1-4-5.2,14,14,0,0,1-.41-3.41c0-.39-.29-2.25.08-2.48a133.34,133.34,0,0,0,18.34-13.36c3.63-3.1,7.58-6.35,10.17-10.24,1.88-2.81,2.93-7,.66-9.4a6.32,6.32,0,0,0-3.23-1.68,14.55,14.55,0,0,0-6.79.27,29,29,0,0,0-14.82,9.78,46.45,46.45,0,0,0-6.36,10c-2.48,5.19-4.49,10.71-4.24,16.13a16.62,16.62,0,0,0,3.2,9.6c2.16,2.72,5.59,3.94,9.51,3.88a27.79,27.79,0,0,0,13.57-4.23A54.56,54.56,0,0,0,317,194.3,3.25,3.25,0,0,0,317.62,191.35Zm-30-9.89a44.45,44.45,0,0,1,7.66-11.36c2.63-2.9,7.73-7.08,11.68-6.25a2.52,2.52,0,0,1,2,1.74,4.27,4.27,0,0,1-.08,2c-1.34,6.09-6.1,10.87-10.81,14.89a140.73,140.73,0,0,1-14.43,10.78A56.85,56.85,0,0,1,287.66,181.45Z" transform="translate(-32.63 -117.24)"/><path d="M95.82,160.68S99.14,155.35,91,158s-20.26,16-20.26,16S55.48,192.78,51.6,200.72a21.45,21.45,0,0,0-2.05,5.78,2.94,2.94,0,0,0,2.8,3.61,5.73,5.73,0,0,0,4.11-1.51c2.95-2.67,5.06-5.2,5.81-10.54,0,0,2.2,2.67,10.29,0l2.73-1.18-5.06,8.51s-2.75,5.11,3.68,2c0,0,.72.4-.27,1.9S56,234.73,46.08,239.14s-12.5-4.51-12.5-4.51-.82-1.7-.94,1.9.77,6.91,9.57,6.11S67.89,220.71,75.28,210A157.33,157.33,0,0,1,87.8,193.77s2-2.8-1.54-1.4L76.5,204.78s-6.69,5-3.78.1a110.37,110.37,0,0,1,7.92-11s-.71-1.1-3.82.4-2.09,1.8-8.28,3.31-4.31-5.71-4.31-5.71-1.4-1.7-2.38,1.1a80.36,80.36,0,0,0-2.15,8.41c-.45,2.5-4.61,7.56-7,7-3-.7-.28-4.91,1.58-7.81s11.16-16.93,12.76-18.63,8.36-11.42,12-14.42,8.85-7.31,11-8.21,3.84-.73,3.75.8C93.65,162.42,95.82,160.68,95.82,160.68Z" transform="translate(-32.63 -117.24)"/></svg>